<?xml version="1.0" encoding="utf-8"?>
<!-- Generator: Adobe Illustrator 16.0.0, SVG Export Plug-In . SVG Version: 6.00 Build 0)  -->
<!DOCTYPE svg PUBLIC "-//W3C//DTD SVG 1.1//EN" "http://www.w3.org/Graphics/SVG/1.1/DTD/svg11.dtd">
<svg version="1.1" id="Layer_1" xmlns="http://www.w3.org/2000/svg" xmlns:xlink="http://www.w3.org/1999/xlink" x="0px" y="0px"
	 width="130px" height="130px" viewBox="0 0 130 130" enable-background="new 0 0 130 130" xml:space="preserve">
<g>
	<g>
		<polygon fill="#558184" points="127.186,83.896 121.271,82.848 119.283,79.533 116.097,76.91 113.543,78.387 111.275,70.771 
			98.087,65 94.223,58.307 86.494,53.846 84.206,50.703 77.273,45.781 67.173,33.766 59.028,44.643 51.428,47.32 42.203,59.33 
			36.26,60.539 28.532,60.539 20.823,69.74 15.618,71.414 11.156,76.713 8.728,80.338 5.113,80.617 1,84.801 20.804,96.234 
			67.394,69.463 113.543,96.234 129,87.311 		"/>
		<polygon fill="#44686D" points="127.186,83.896 122.884,85.963 119.283,79.533 116.563,80.338 113.543,78.387 111.275,70.771 
			101.411,71.693 94.223,58.307 88.63,57.053 84.206,50.703 75.384,46.967 67.173,33.766 64.136,42.459 59.028,44.643 
			52.423,49.104 42.203,59.33 35.737,62.119 30.299,63.42 20.823,69.74 16.634,74.342 11.754,77.967 8.728,80.338 5.619,82.012 
			1,84.801 20.804,96.234 67.394,69.463 113.543,96.234 129,87.311 		"/>
		<polygon fill="#3D6066" points="107.593,88.332 102.573,86.844 91.604,79.037 88.63,73.785 79.914,72.182 75.384,63.699 
			67.173,57.193 64.136,59.191 59.028,61.375 54.467,72.67 42.203,76.062 35.737,78.852 30.136,84.801 20.823,86.473 19.005,92.607 
			14.549,92.623 20.804,96.234 67.394,69.463 113.543,96.234 114.455,95.707 113.543,95.119 		"/>
		<g>
			<polygon fill="#375A5E" points="35.737,84.148 30.136,90.098 20.823,91.771 19.69,95.592 20.804,96.234 50.854,78.965 
				42.203,81.359 			"/>
			<polygon fill="#375A5E" points="81.813,77.828 90.907,83.104 88.63,79.084 			"/>
			<polygon fill="#375A5E" points="67.173,62.49 64.136,64.488 59.028,66.672 55.033,76.564 67.394,69.463 79.333,76.389 
				75.384,68.996 			"/>
		</g>
		<polygon fill="#558184" points="58.884,50.871 58.604,52.357 57.07,53.566 53.816,52.775 50.843,57.562 54.258,54.02 
			57.35,54.775 57.489,56.355 58.744,54.217 60.277,53.381 60.51,51.754 62.229,50.871 		"/>
		<polygon fill="#558184" points="21.288,79.84 20.525,81.209 17.629,81.209 16.206,85.428 18.392,82.43 19.915,82.43 21.338,82.43 
			21.896,81.531 22.405,80.295 24.488,79.432 		"/>
		<polygon fill="#558184" points="52.935,64.676 48.079,67.23 46.984,69.527 44.057,69.184 38.339,71.693 44.661,70.578 
			47.596,71.414 49.588,67.789 53.585,65 54.05,62.77 		"/>
		<polygon fill="#558184" points="85.283,70.021 84.261,67.23 82.402,66.953 81.813,63.607 76.639,59.609 80.705,63.979 
			81.008,67.23 83.89,68.812 84.726,70.672 91.884,70.299 		"/>
		<polygon fill="#558184" points="110.032,80.338 107.94,80.617 102.888,76.564 107.94,82.312 110.729,81.174 		"/>
		<polygon fill="#558184" points="78.938,54.217 76.639,52.102 73.012,52.102 69.805,47.711 73.222,54.217 76.639,54.217 
			82.424,57.562 		"/>
		<polygon opacity="0.5" fill="#79B2B5" points="69.805,44.643 74.615,50.498 75.731,46.873 79.47,47.34 77.273,45.781 
			67.173,33.766 60.559,42.598 61.648,42.551 65.831,46.037 68.132,42.76 		"/>
		<polygon opacity="0.5" fill="#79B2B5" points="94.932,66.953 97.832,67.789 100.621,70.223 101.457,67.998 103.978,67.578 
			98.087,65 94.223,58.307 88.28,54.877 88.28,60.189 93.719,63.117 		"/>
		<polygon opacity="0.5" fill="#79B2B5" points="20.823,69.74 20.576,69.82 14.549,77.061 23.187,70.223 27.556,66.953 
			30.995,66.953 32.947,65 34.993,68.348 37.038,63.979 41.128,63.514 42.43,59.035 42.203,59.33 36.26,60.539 28.532,60.539 		"/>
		<polygon opacity="0.5" fill="#79B2B5" points="51.428,47.32 46.872,53.252 50.843,51.404 52.236,52.637 55.033,50.871 
			57.256,49.732 56.537,47.711 57.338,45.236 		"/>
		<polygon opacity="0.5" fill="#79B2B5" points="9.011,87.6 9.987,84.451 14.937,83.791 13.961,83.197 14.937,81.662 12.079,80.617 
			11.743,76.016 11.156,76.713 8.728,80.338 5.113,80.617 1.011,84.789 		"/>
		<polygon opacity="0.5" fill="#79B2B5" points="115.773,89.541 121.351,89.262 124.79,88.055 123.367,83.219 121.271,82.848 
			119.283,79.533 116.229,77.02 117.539,84.801 120.7,86.844 114.455,88.146 112.984,90.564 		"/>
		<g opacity="0.3">
			<polygon fill="#79B2B5" points="67.173,33.766 62.287,40.289 67.183,38.354 68.62,40.809 71.13,42.133 70.781,40.18 
				72.565,40.18 			"/>
			<polygon fill="#79B2B5" points="61.857,40.865 61.857,40.865 61.858,40.863 			"/>
		</g>
		<polygon opacity="0.3" fill="#79B2B5" points="40.477,61.234 40.756,62.119 41.993,60.541 42.802,61.422 46.298,53.998 
			42.203,59.33 36.26,60.539 36.015,60.539 39.036,61.561 		"/>
		<polygon opacity="0.5" fill="#79B2B5" points="87.7,60.957 89.14,59.982 92.72,60.26 95.275,62.77 93.138,59.145 90.302,57.562 
			89.743,55.721 86.494,53.846 84.206,50.703 87.7,58.912 		"/>
		<polygon opacity="0.3" fill="#79B2B5" points="15.618,71.414 11.156,76.713 10.821,77.211 11.794,76.713 15.564,74.273 
			14.937,77.441 15.564,80.896 15.913,77.061 20.823,69.74 		"/>
		<polygon opacity="0.5" fill="#79B2B5" points="105.57,69.949 109.614,77.02 109.614,71.861 111.356,74.621 112.984,78.84 
			115.261,82.312 113.543,78.387 111.275,70.771 98.087,65 103.2,70.223 		"/>
		<polygon opacity="0.2" fill="#1E6C84" points="116.563,88.994 113.543,87.041 111.275,79.428 101.411,80.35 94.223,66.963 
			88.63,65.709 84.206,59.359 73.105,58.027 67.808,54.877 63.8,53.998 57.86,58.307 52.423,57.76 42.203,67.986 35.737,70.775 
			30.299,72.076 20.823,78.396 16.634,82.998 11.754,86.623 8.728,88.994 8.488,89.123 20.804,96.234 67.394,69.463 113.543,96.234 
			121.285,91.764 119.283,88.189 		"/>
	</g>
	<polygon opacity="0.2" fill="#1E6C84" points="67.394,69.463 20.804,96.234 113.543,96.234 	"/>
	<polygon opacity="0.2" fill="#1E6C84" points="29.869,96.234 104.563,96.234 67.394,74.672 	"/>
</g>
</svg>
